<mxfile host="65bd71144e">
    <diagram name="Page-1" id="c086bf0a-3035-ec22-f8d5-a80352446696">
        <mxGraphModel dx="1782" dy="1530" grid="1" gridSize="10" guides="1" tooltips="1" connect="1" arrows="1" fold="1" page="1" pageScale="1" pageWidth="1169" pageHeight="826" background="none" math="0" shadow="0">
            <root>
                <mxCell id="0"/>
                <mxCell id="1" parent="0"/>
                <mxCell id="107" value="TNB INCOMER 1 (11kV)" style="text;strokeColor=none;align=center;fillColor=none;html=1;verticalAlign=middle;whiteSpace=wrap;rounded=0;" vertex="1" parent="1">
                    <mxGeometry x="160" y="-820" width="80" height="30" as="geometry"/>
                </mxCell>
                <mxCell id="108" value="TNB INCOMER 1 (11kV)" style="text;strokeColor=none;align=center;fillColor=none;html=1;verticalAlign=middle;whiteSpace=wrap;rounded=0;" vertex="1" parent="1">
                    <mxGeometry x="160" y="-820" width="80" height="30" as="geometry"/>
                </mxCell>
                <mxCell id="110" value="TNB INCOMER 2 (11kV)" style="text;strokeColor=none;align=center;fillColor=none;html=1;verticalAlign=middle;whiteSpace=wrap;rounded=0;" vertex="1" parent="1">
                    <mxGeometry x="850" y="-820" width="80" height="30" as="geometry"/>
                </mxCell>
                <mxCell id="114" value="" style="endArrow=none;html=1;" edge="1" parent="1">
                    <mxGeometry width="50" height="50" relative="1" as="geometry">
                        <mxPoint x="200" y="-670" as="sourcePoint"/>
                        <mxPoint x="510" y="-670" as="targetPoint"/>
                        <Array as="points">
                            <mxPoint x="510" y="-670"/>
                        </Array>
                    </mxGeometry>
                </mxCell>
                <mxCell id="115" value="" style="endArrow=none;html=1;" edge="1" parent="1">
                    <mxGeometry width="50" height="50" relative="1" as="geometry">
                        <mxPoint x="200" y="-730" as="sourcePoint"/>
                        <mxPoint x="200" y="-780" as="targetPoint"/>
                    </mxGeometry>
                </mxCell>
                <mxCell id="116" value="" style="endArrow=none;html=1;" edge="1" parent="1">
                    <mxGeometry width="50" height="50" relative="1" as="geometry">
                        <mxPoint x="200" y="-730" as="sourcePoint"/>
                        <mxPoint x="199.5" y="-780" as="targetPoint"/>
                    </mxGeometry>
                </mxCell>
                <mxCell id="118" value="" style="endArrow=none;html=1;" edge="1" parent="1">
                    <mxGeometry width="50" height="50" relative="1" as="geometry">
                        <mxPoint x="890" y="-730" as="sourcePoint"/>
                        <mxPoint x="890" y="-780" as="targetPoint"/>
                    </mxGeometry>
                </mxCell>
                <mxCell id="119" value="TNB Bulk Meter" style="rounded=0;whiteSpace=wrap;html=1;" vertex="1" parent="1">
                    <mxGeometry x="490" y="-770" width="90" height="40" as="geometry"/>
                </mxCell>
                <mxCell id="120" value="" style="endArrow=none;html=1;entryX=0;entryY=0.5;entryDx=0;entryDy=0;" edge="1" parent="1" target="119">
                    <mxGeometry width="50" height="50" relative="1" as="geometry">
                        <mxPoint x="200" y="-750" as="sourcePoint"/>
                        <mxPoint x="480" y="-750" as="targetPoint"/>
                    </mxGeometry>
                </mxCell>
                <mxCell id="121" value="" style="endArrow=none;html=1;exitX=1;exitY=0.5;exitDx=0;exitDy=0;" edge="1" parent="1" source="119">
                    <mxGeometry width="50" height="50" relative="1" as="geometry">
                        <mxPoint x="580" y="-550" as="sourcePoint"/>
                        <mxPoint x="890" y="-750" as="targetPoint"/>
                    </mxGeometry>
                </mxCell>
                <mxCell id="122" value="" style="shape=mxgraph.sysml.x;" vertex="1" parent="1">
                    <mxGeometry x="190" y="-730" width="20" height="20" as="geometry"/>
                </mxCell>
                <mxCell id="123" value="" style="shape=mxgraph.sysml.x;" vertex="1" parent="1">
                    <mxGeometry x="880" y="-730" width="20" height="20" as="geometry"/>
                </mxCell>
                <mxCell id="124" value="&lt;font style=&quot;font-size: 8px;&quot;&gt;1200A&lt;br&gt;TPN&lt;br&gt;ACB&lt;/font&gt;" style="text;strokeColor=none;align=center;fillColor=none;html=1;verticalAlign=middle;whiteSpace=wrap;rounded=0;" vertex="1" parent="1">
                    <mxGeometry x="150" y="-730" width="40" height="20" as="geometry"/>
                </mxCell>
                <mxCell id="125" value="&lt;font style=&quot;font-size: 8px;&quot;&gt;1200A&lt;br&gt;TPN&lt;br&gt;ACB&lt;/font&gt;" style="text;strokeColor=none;align=center;fillColor=none;html=1;verticalAlign=middle;whiteSpace=wrap;rounded=0;" vertex="1" parent="1">
                    <mxGeometry x="900" y="-730" width="40" height="20" as="geometry"/>
                </mxCell>
                <mxCell id="126" value="" style="endArrow=none;html=1;" edge="1" parent="1" target="123">
                    <mxGeometry width="50" height="50" relative="1" as="geometry">
                        <mxPoint x="889.5" y="-670" as="sourcePoint"/>
                        <mxPoint x="890" y="-700" as="targetPoint"/>
                    </mxGeometry>
                </mxCell>
                <mxCell id="127" value="" style="endArrow=none;html=1;" edge="1" parent="1" target="122">
                    <mxGeometry width="50" height="50" relative="1" as="geometry">
                        <mxPoint x="199.5" y="-670" as="sourcePoint"/>
                        <mxPoint x="200" y="-700" as="targetPoint"/>
                    </mxGeometry>
                </mxCell>
                <mxCell id="128" value="" style="endArrow=none;html=1;" edge="1" parent="1">
                    <mxGeometry width="50" height="50" relative="1" as="geometry">
                        <mxPoint x="40" y="-670" as="sourcePoint"/>
                        <mxPoint x="510" y="-670" as="targetPoint"/>
                        <Array as="points">
                            <mxPoint x="510" y="-670"/>
                            <mxPoint x="530" y="-670"/>
                        </Array>
                    </mxGeometry>
                </mxCell>
                <mxCell id="129" value="" style="endArrow=none;html=1;" edge="1" parent="1">
                    <mxGeometry width="50" height="50" relative="1" as="geometry">
                        <mxPoint x="550" y="-670" as="sourcePoint"/>
                        <mxPoint x="890" y="-670" as="targetPoint"/>
                    </mxGeometry>
                </mxCell>
                <mxCell id="130" value="" style="shape=mxgraph.sysml.x;" vertex="1" parent="1">
                    <mxGeometry x="530" y="-680" width="20" height="20" as="geometry"/>
                </mxCell>
                <mxCell id="131" value="&lt;font style=&quot;font-size: 8px;&quot;&gt;1200A&lt;br&gt;TPN&lt;br&gt;Coupler&lt;br&gt;&lt;/font&gt;" style="text;strokeColor=none;align=center;fillColor=none;html=1;verticalAlign=middle;whiteSpace=wrap;rounded=0;" vertex="1" parent="1">
                    <mxGeometry x="520" y="-650" width="40" height="20" as="geometry"/>
                </mxCell>
                <mxCell id="133" value="M &amp;amp; E&lt;br&gt;Interlock" style="text;strokeColor=none;align=center;fillColor=none;html=1;verticalAlign=middle;whiteSpace=wrap;rounded=0;fontSize=8;" vertex="1" parent="1">
                    <mxGeometry x="510" y="-710" width="60" height="30" as="geometry"/>
                </mxCell>
                <mxCell id="134" value="" style="endArrow=none;html=1;" edge="1" parent="1">
                    <mxGeometry width="50" height="50" relative="1" as="geometry">
                        <mxPoint x="40" y="-630" as="sourcePoint"/>
                        <mxPoint x="40.5" y="-670" as="targetPoint"/>
                    </mxGeometry>
                </mxCell>
                <mxCell id="135" value="" style="endArrow=none;html=1;" edge="1" parent="1">
                    <mxGeometry width="50" height="50" relative="1" as="geometry">
                        <mxPoint x="101" y="-630" as="sourcePoint"/>
                        <mxPoint x="100.5" y="-670" as="targetPoint"/>
                    </mxGeometry>
                </mxCell>
                <mxCell id="136" value="" style="endArrow=none;html=1;" edge="1" parent="1">
                    <mxGeometry width="50" height="50" relative="1" as="geometry">
                        <mxPoint x="161" y="-630" as="sourcePoint"/>
                        <mxPoint x="160.5" y="-670" as="targetPoint"/>
                    </mxGeometry>
                </mxCell>
                <mxCell id="137" value="" style="endArrow=none;html=1;" edge="1" parent="1">
                    <mxGeometry width="50" height="50" relative="1" as="geometry">
                        <mxPoint x="221" y="-630" as="sourcePoint"/>
                        <mxPoint x="220.5" y="-670" as="targetPoint"/>
                    </mxGeometry>
                </mxCell>
                <mxCell id="138" value="" style="endArrow=none;html=1;" edge="1" parent="1">
                    <mxGeometry width="50" height="50" relative="1" as="geometry">
                        <mxPoint x="280" y="-630" as="sourcePoint"/>
                        <mxPoint x="280.5" y="-670" as="targetPoint"/>
                    </mxGeometry>
                </mxCell>
                <mxCell id="139" value="" style="endArrow=none;html=1;" edge="1" parent="1">
                    <mxGeometry width="50" height="50" relative="1" as="geometry">
                        <mxPoint x="461" y="-630" as="sourcePoint"/>
                        <mxPoint x="460.5" y="-670" as="targetPoint"/>
                    </mxGeometry>
                </mxCell>
                <mxCell id="140" value="" style="endArrow=none;html=1;" edge="1" parent="1">
                    <mxGeometry width="50" height="50" relative="1" as="geometry">
                        <mxPoint x="401" y="-630" as="sourcePoint"/>
                        <mxPoint x="400.5" y="-670" as="targetPoint"/>
                    </mxGeometry>
                </mxCell>
                <mxCell id="141" value="" style="endArrow=none;html=1;" edge="1" parent="1">
                    <mxGeometry width="50" height="50" relative="1" as="geometry">
                        <mxPoint x="341" y="-630" as="sourcePoint"/>
                        <mxPoint x="340.5" y="-670" as="targetPoint"/>
                    </mxGeometry>
                </mxCell>
                <mxCell id="144" value="" style="shape=mxgraph.sysml.x;" vertex="1" parent="1">
                    <mxGeometry x="30" y="-630" width="20" height="20" as="geometry"/>
                </mxCell>
                <mxCell id="145" value="" style="shape=mxgraph.sysml.x;" vertex="1" parent="1">
                    <mxGeometry x="150" y="-630" width="20" height="20" as="geometry"/>
                </mxCell>
                <mxCell id="146" value="" style="shape=mxgraph.sysml.x;" vertex="1" parent="1">
                    <mxGeometry x="330" y="-630" width="20" height="20" as="geometry"/>
                </mxCell>
                <mxCell id="147" value="" style="shape=mxgraph.sysml.x;" vertex="1" parent="1">
                    <mxGeometry x="390" y="-630" width="20" height="20" as="geometry"/>
                </mxCell>
                <mxCell id="148" value="" style="shape=mxgraph.sysml.x;" vertex="1" parent="1">
                    <mxGeometry x="450" y="-630" width="20" height="20" as="geometry"/>
                </mxCell>
                <mxCell id="149" value="" style="shape=mxgraph.sysml.x;" vertex="1" parent="1">
                    <mxGeometry x="270" y="-630" width="20" height="20" as="geometry"/>
                </mxCell>
                <mxCell id="150" value="" style="shape=mxgraph.sysml.x;" vertex="1" parent="1">
                    <mxGeometry x="90" y="-630" width="20" height="20" as="geometry"/>
                </mxCell>
                <mxCell id="151" value="" style="shape=mxgraph.sysml.x;" vertex="1" parent="1">
                    <mxGeometry x="210" y="-630" width="20" height="20" as="geometry"/>
                </mxCell>
                <mxCell id="163" value="800A TPN&lt;br&gt;ACB" style="text;strokeColor=none;align=center;fillColor=none;html=1;verticalAlign=middle;whiteSpace=wrap;rounded=0;fontSize=8;rotation=-90;" vertex="1" parent="1">
                    <mxGeometry x="-10" y="-630" width="50" height="25" as="geometry"/>
                </mxCell>
                <mxCell id="166" value="30A TPN&lt;br&gt;MCCB" style="text;strokeColor=none;align=center;fillColor=none;html=1;verticalAlign=middle;whiteSpace=wrap;rounded=0;fontSize=8;rotation=-90;" vertex="1" parent="1">
                    <mxGeometry x="50" y="-632.5" width="50" height="25" as="geometry"/>
                </mxCell>
                <mxCell id="167" value="60A TPN&lt;br&gt;MCCB" style="text;strokeColor=none;align=center;fillColor=none;html=1;verticalAlign=middle;whiteSpace=wrap;rounded=0;fontSize=8;rotation=-90;" vertex="1" parent="1">
                    <mxGeometry x="110" y="-632.5" width="50" height="25" as="geometry"/>
                </mxCell>
                <mxCell id="168" value="150A TPN&lt;br&gt;MCCB" style="text;strokeColor=none;align=center;fillColor=none;html=1;verticalAlign=middle;whiteSpace=wrap;rounded=0;fontSize=8;rotation=-90;" vertex="1" parent="1">
                    <mxGeometry x="170" y="-632.5" width="50" height="25" as="geometry"/>
                </mxCell>
                <mxCell id="169" value="100A TPN&lt;br&gt;MCCB" style="text;strokeColor=none;align=center;fillColor=none;html=1;verticalAlign=middle;whiteSpace=wrap;rounded=0;fontSize=8;rotation=-90;" vertex="1" parent="1">
                    <mxGeometry x="230" y="-632.5" width="50" height="25" as="geometry"/>
                </mxCell>
                <mxCell id="170" value="60A TPN&lt;br&gt;MCCB" style="text;strokeColor=none;align=center;fillColor=none;html=1;verticalAlign=middle;whiteSpace=wrap;rounded=0;fontSize=8;rotation=-90;" vertex="1" parent="1">
                    <mxGeometry x="290" y="-632.5" width="50" height="25" as="geometry"/>
                </mxCell>
                <mxCell id="171" value="60A TPN&lt;br&gt;MCCB" style="text;strokeColor=none;align=center;fillColor=none;html=1;verticalAlign=middle;whiteSpace=wrap;rounded=0;fontSize=8;rotation=-90;" vertex="1" parent="1">
                    <mxGeometry x="350" y="-632.5" width="50" height="25" as="geometry"/>
                </mxCell>
                <mxCell id="172" value="30A TPN&lt;br&gt;MCCB" style="text;strokeColor=none;align=center;fillColor=none;html=1;verticalAlign=middle;whiteSpace=wrap;rounded=0;fontSize=8;rotation=-90;" vertex="1" parent="1">
                    <mxGeometry x="410" y="-632.5" width="50" height="25" as="geometry"/>
                </mxCell>
                <mxCell id="173" value="&lt;b&gt;SPARE&lt;/b&gt;" style="text;strokeColor=none;align=center;fillColor=none;html=1;verticalAlign=middle;whiteSpace=wrap;rounded=0;fontSize=8;rotation=0;" vertex="1" parent="1">
                    <mxGeometry x="430" y="-605" width="60" height="30" as="geometry"/>
                </mxCell>
                <mxCell id="174" value="&lt;b&gt;SPARE&lt;/b&gt;" style="text;strokeColor=none;align=center;fillColor=none;html=1;verticalAlign=middle;whiteSpace=wrap;rounded=0;fontSize=8;rotation=0;" vertex="1" parent="1">
                    <mxGeometry x="370" y="-605" width="60" height="30" as="geometry"/>
                </mxCell>
                <mxCell id="175" value="&lt;b&gt;SPARE&lt;/b&gt;" style="text;strokeColor=none;align=center;fillColor=none;html=1;verticalAlign=middle;whiteSpace=wrap;rounded=0;fontSize=8;rotation=0;" vertex="1" parent="1">
                    <mxGeometry x="310" y="-605" width="60" height="30" as="geometry"/>
                </mxCell>
                <mxCell id="176" value="&lt;b&gt;SPARE&lt;/b&gt;" style="text;strokeColor=none;align=center;fillColor=none;html=1;verticalAlign=middle;whiteSpace=wrap;rounded=0;fontSize=8;rotation=0;" vertex="1" parent="1">
                    <mxGeometry x="250" y="-605" width="60" height="30" as="geometry"/>
                </mxCell>
                <mxCell id="180" value="" style="endArrow=none;html=1;" edge="1" parent="1">
                    <mxGeometry width="50" height="50" relative="1" as="geometry">
                        <mxPoint x="41" y="-560" as="sourcePoint"/>
                        <mxPoint x="40.5" y="-605" as="targetPoint"/>
                    </mxGeometry>
                </mxCell>
                <mxCell id="181" value="" style="endArrow=none;html=1;" edge="1" parent="1">
                    <mxGeometry width="50" height="50" relative="1" as="geometry">
                        <mxPoint x="100.5" y="-560" as="sourcePoint"/>
                        <mxPoint x="100" y="-605" as="targetPoint"/>
                    </mxGeometry>
                </mxCell>
                <mxCell id="182" value="" style="endArrow=none;html=1;" edge="1" parent="1">
                    <mxGeometry width="50" height="50" relative="1" as="geometry">
                        <mxPoint x="160.5" y="-560" as="sourcePoint"/>
                        <mxPoint x="160" y="-605" as="targetPoint"/>
                    </mxGeometry>
                </mxCell>
                <mxCell id="183" value="" style="endArrow=none;html=1;" edge="1" parent="1">
                    <mxGeometry width="50" height="50" relative="1" as="geometry">
                        <mxPoint x="220" y="-560" as="sourcePoint"/>
                        <mxPoint x="219.5" y="-605" as="targetPoint"/>
                    </mxGeometry>
                </mxCell>
                <mxCell id="184" value="&lt;font style=&quot;font-size: 9px;&quot;&gt;Main A/C&amp;nbsp;&lt;br&gt;Control Panel&lt;br&gt;(330kW)&lt;/font&gt;" style="text;strokeColor=none;align=center;fillColor=none;html=1;verticalAlign=middle;whiteSpace=wrap;rounded=0;fontSize=8;rotation=0;" vertex="1" parent="1">
                    <mxGeometry x="10" y="-560" width="60" height="30" as="geometry"/>
                </mxCell>
                <mxCell id="185" value="&lt;font style=&quot;font-size: 9px;&quot;&gt;FP2&lt;br&gt;(22.8kW)&lt;/font&gt;" style="text;strokeColor=none;align=center;fillColor=none;html=1;verticalAlign=middle;whiteSpace=wrap;rounded=0;fontSize=8;rotation=0;" vertex="1" parent="1">
                    <mxGeometry x="130" y="-560" width="60" height="30" as="geometry"/>
                </mxCell>
                <mxCell id="186" value="&lt;b&gt;SPARE&lt;/b&gt;" style="text;strokeColor=none;align=center;fillColor=none;html=1;verticalAlign=middle;whiteSpace=wrap;rounded=0;fontSize=8;rotation=0;" vertex="1" parent="1">
                    <mxGeometry x="70" y="-560" width="60" height="30" as="geometry"/>
                </mxCell>
                <mxCell id="187" value="&lt;font style=&quot;font-size: 9px;&quot;&gt;FP3&lt;br&gt;(54.05kW)&lt;/font&gt;" style="text;strokeColor=none;align=center;fillColor=none;html=1;verticalAlign=middle;whiteSpace=wrap;rounded=0;fontSize=8;rotation=0;" vertex="1" parent="1">
                    <mxGeometry x="190" y="-560" width="60" height="30" as="geometry"/>
                </mxCell>
                <mxCell id="188" value="" style="endArrow=none;html=1;" edge="1" parent="1">
                    <mxGeometry width="50" height="50" relative="1" as="geometry">
                        <mxPoint x="620" y="-630" as="sourcePoint"/>
                        <mxPoint x="620.5" y="-670" as="targetPoint"/>
                    </mxGeometry>
                </mxCell>
                <mxCell id="189" value="" style="endArrow=none;html=1;" edge="1" parent="1">
                    <mxGeometry width="50" height="50" relative="1" as="geometry">
                        <mxPoint x="680" y="-630" as="sourcePoint"/>
                        <mxPoint x="680.5" y="-670" as="targetPoint"/>
                    </mxGeometry>
                </mxCell>
                <mxCell id="190" value="" style="endArrow=none;html=1;" edge="1" parent="1">
                    <mxGeometry width="50" height="50" relative="1" as="geometry">
                        <mxPoint x="800" y="-630" as="sourcePoint"/>
                        <mxPoint x="800.5" y="-670" as="targetPoint"/>
                    </mxGeometry>
                </mxCell>
                <mxCell id="191" value="" style="endArrow=none;html=1;" edge="1" parent="1">
                    <mxGeometry width="50" height="50" relative="1" as="geometry">
                        <mxPoint x="740" y="-630" as="sourcePoint"/>
                        <mxPoint x="740.5" y="-670" as="targetPoint"/>
                    </mxGeometry>
                </mxCell>
                <mxCell id="192" value="" style="shape=mxgraph.sysml.x;" vertex="1" parent="1">
                    <mxGeometry x="610" y="-627.5" width="20" height="20" as="geometry"/>
                </mxCell>
                <mxCell id="193" value="" style="shape=mxgraph.sysml.x;" vertex="1" parent="1">
                    <mxGeometry x="790" y="-627.5" width="20" height="20" as="geometry"/>
                </mxCell>
                <mxCell id="194" value="" style="shape=mxgraph.sysml.x;" vertex="1" parent="1">
                    <mxGeometry x="730" y="-627.5" width="20" height="20" as="geometry"/>
                </mxCell>
                <mxCell id="195" value="" style="shape=mxgraph.sysml.x;" vertex="1" parent="1">
                    <mxGeometry x="670" y="-627.5" width="20" height="20" as="geometry"/>
                </mxCell>
                <mxCell id="196" value="100A TPN&lt;br&gt;MCCB" style="text;strokeColor=none;align=center;fillColor=none;html=1;verticalAlign=middle;whiteSpace=wrap;rounded=0;fontSize=8;rotation=-90;" vertex="1" parent="1">
                    <mxGeometry x="570" y="-630" width="50" height="25" as="geometry"/>
                </mxCell>
                <mxCell id="197" value="60A TPN&lt;br&gt;MCCB" style="text;strokeColor=none;align=center;fillColor=none;html=1;verticalAlign=middle;whiteSpace=wrap;rounded=0;fontSize=8;rotation=-90;" vertex="1" parent="1">
                    <mxGeometry x="750" y="-632.5" width="50" height="25" as="geometry"/>
                </mxCell>
                <mxCell id="198" value="100A TPN&lt;br&gt;MCCB" style="text;strokeColor=none;align=center;fillColor=none;html=1;verticalAlign=middle;whiteSpace=wrap;rounded=0;fontSize=8;rotation=-90;" vertex="1" parent="1">
                    <mxGeometry x="690" y="-632.5" width="50" height="25" as="geometry"/>
                </mxCell>
                <mxCell id="199" value="100A TPN&lt;br&gt;MCCB" style="text;strokeColor=none;align=center;fillColor=none;html=1;verticalAlign=middle;whiteSpace=wrap;rounded=0;fontSize=8;rotation=-90;" vertex="1" parent="1">
                    <mxGeometry x="630" y="-632.5" width="50" height="25" as="geometry"/>
                </mxCell>
                <mxCell id="202" value="" style="endArrow=none;html=1;" edge="1" parent="1">
                    <mxGeometry width="50" height="50" relative="1" as="geometry">
                        <mxPoint x="619.5" y="-560" as="sourcePoint"/>
                        <mxPoint x="619" y="-605" as="targetPoint"/>
                    </mxGeometry>
                </mxCell>
                <mxCell id="203" value="" style="endArrow=none;html=1;" edge="1" parent="1">
                    <mxGeometry width="50" height="50" relative="1" as="geometry">
                        <mxPoint x="799.5" y="-560" as="sourcePoint"/>
                        <mxPoint x="799" y="-605" as="targetPoint"/>
                    </mxGeometry>
                </mxCell>
                <mxCell id="204" value="" style="endArrow=none;html=1;" edge="1" parent="1">
                    <mxGeometry width="50" height="50" relative="1" as="geometry">
                        <mxPoint x="740" y="-560" as="sourcePoint"/>
                        <mxPoint x="739.5" y="-605" as="targetPoint"/>
                    </mxGeometry>
                </mxCell>
                <mxCell id="205" value="" style="endArrow=none;html=1;" edge="1" parent="1">
                    <mxGeometry width="50" height="50" relative="1" as="geometry">
                        <mxPoint x="680.5" y="-560" as="sourcePoint"/>
                        <mxPoint x="680" y="-605" as="targetPoint"/>
                    </mxGeometry>
                </mxCell>
                <mxCell id="206" value="&lt;font size=&quot;1&quot;&gt;SSB.3&lt;br&gt;&lt;/font&gt;(20.00kW)" style="text;strokeColor=none;align=center;fillColor=none;html=1;verticalAlign=middle;whiteSpace=wrap;rounded=0;fontSize=8;rotation=0;" vertex="1" parent="1">
                    <mxGeometry x="770" y="-560" width="60" height="30" as="geometry"/>
                </mxCell>
                <mxCell id="207" value="&lt;font size=&quot;1&quot;&gt;SSB.2&lt;br&gt;&lt;/font&gt;(38.00kW)" style="text;strokeColor=none;align=center;fillColor=none;html=1;verticalAlign=middle;whiteSpace=wrap;rounded=0;fontSize=8;rotation=0;" vertex="1" parent="1">
                    <mxGeometry x="710" y="-560" width="60" height="30" as="geometry"/>
                </mxCell>
                <mxCell id="208" value="&lt;font size=&quot;1&quot;&gt;SSB.1&lt;br&gt;&lt;/font&gt;(48.00kW)" style="text;strokeColor=none;align=center;fillColor=none;html=1;verticalAlign=middle;whiteSpace=wrap;rounded=0;fontSize=8;rotation=0;" vertex="1" parent="1">
                    <mxGeometry x="650" y="-560" width="60" height="30" as="geometry"/>
                </mxCell>
                <mxCell id="209" value="&lt;font size=&quot;1&quot;&gt;SSB.G&lt;br&gt;&lt;/font&gt;(48.25kW)" style="text;strokeColor=none;align=center;fillColor=none;html=1;verticalAlign=middle;whiteSpace=wrap;rounded=0;fontSize=8;rotation=0;" vertex="1" parent="1">
                    <mxGeometry x="590" y="-560" width="60" height="30" as="geometry"/>
                </mxCell>
                <mxCell id="210" value="" style="endArrow=none;html=1;" edge="1" parent="1">
                    <mxGeometry width="50" height="50" relative="1" as="geometry">
                        <mxPoint x="890" y="-670.5" as="sourcePoint"/>
                        <mxPoint x="1150" y="-670" as="targetPoint"/>
                    </mxGeometry>
                </mxCell>
                <mxCell id="211" value="" style="endArrow=none;html=1;" edge="1" parent="1">
                    <mxGeometry width="50" height="50" relative="1" as="geometry">
                        <mxPoint x="860" y="-630" as="sourcePoint"/>
                        <mxPoint x="860.5" y="-670" as="targetPoint"/>
                    </mxGeometry>
                </mxCell>
                <mxCell id="212" value="" style="endArrow=none;html=1;" edge="1" parent="1">
                    <mxGeometry width="50" height="50" relative="1" as="geometry">
                        <mxPoint x="919.5" y="-630" as="sourcePoint"/>
                        <mxPoint x="920" y="-670" as="targetPoint"/>
                    </mxGeometry>
                </mxCell>
                <mxCell id="213" value="" style="endArrow=none;html=1;" edge="1" parent="1">
                    <mxGeometry width="50" height="50" relative="1" as="geometry">
                        <mxPoint x="1040" y="-630" as="sourcePoint"/>
                        <mxPoint x="1040.5" y="-670" as="targetPoint"/>
                    </mxGeometry>
                </mxCell>
                <mxCell id="214" value="" style="endArrow=none;html=1;" edge="1" parent="1">
                    <mxGeometry width="50" height="50" relative="1" as="geometry">
                        <mxPoint x="980" y="-630" as="sourcePoint"/>
                        <mxPoint x="980.5" y="-670" as="targetPoint"/>
                    </mxGeometry>
                </mxCell>
                <mxCell id="215" value="" style="shape=mxgraph.sysml.x;" vertex="1" parent="1">
                    <mxGeometry x="1030" y="-627.5" width="20" height="20" as="geometry"/>
                </mxCell>
                <mxCell id="216" value="" style="shape=mxgraph.sysml.x;" vertex="1" parent="1">
                    <mxGeometry x="970" y="-627.5" width="20" height="20" as="geometry"/>
                </mxCell>
                <mxCell id="217" value="" style="shape=mxgraph.sysml.x;" vertex="1" parent="1">
                    <mxGeometry x="910" y="-627.5" width="20" height="20" as="geometry"/>
                </mxCell>
                <mxCell id="218" value="" style="shape=mxgraph.sysml.x;" vertex="1" parent="1">
                    <mxGeometry x="850" y="-627.5" width="20" height="20" as="geometry"/>
                </mxCell>
                <mxCell id="219" value="" style="endArrow=none;html=1;" edge="1" parent="1">
                    <mxGeometry width="50" height="50" relative="1" as="geometry">
                        <mxPoint x="860" y="-560" as="sourcePoint"/>
                        <mxPoint x="859.5" y="-605" as="targetPoint"/>
                    </mxGeometry>
                </mxCell>
                <mxCell id="220" value="&lt;font size=&quot;1&quot;&gt;FP1&lt;br&gt;&lt;/font&gt;(17.4kW)" style="text;strokeColor=none;align=center;fillColor=none;html=1;verticalAlign=middle;whiteSpace=wrap;rounded=0;fontSize=8;rotation=0;" vertex="1" parent="1">
                    <mxGeometry x="830" y="-560" width="60" height="30" as="geometry"/>
                </mxCell>
                <mxCell id="221" value="&lt;b&gt;SPARE&lt;/b&gt;" style="text;strokeColor=none;align=center;fillColor=none;html=1;verticalAlign=middle;whiteSpace=wrap;rounded=0;fontSize=8;rotation=0;" vertex="1" parent="1">
                    <mxGeometry x="1010" y="-605" width="60" height="30" as="geometry"/>
                </mxCell>
                <mxCell id="222" value="&lt;b&gt;SPARE&lt;/b&gt;" style="text;strokeColor=none;align=center;fillColor=none;html=1;verticalAlign=middle;whiteSpace=wrap;rounded=0;fontSize=8;rotation=0;" vertex="1" parent="1">
                    <mxGeometry x="950" y="-605" width="60" height="30" as="geometry"/>
                </mxCell>
                <mxCell id="223" value="&lt;b&gt;SPARE&lt;/b&gt;" style="text;strokeColor=none;align=center;fillColor=none;html=1;verticalAlign=middle;whiteSpace=wrap;rounded=0;fontSize=8;rotation=0;" vertex="1" parent="1">
                    <mxGeometry x="890" y="-605" width="60" height="30" as="geometry"/>
                </mxCell>
                <mxCell id="224" value="" style="endArrow=none;html=1;" edge="1" parent="1">
                    <mxGeometry width="50" height="50" relative="1" as="geometry">
                        <mxPoint x="1101" y="-630" as="sourcePoint"/>
                        <mxPoint x="1100.5" y="-670" as="targetPoint"/>
                    </mxGeometry>
                </mxCell>
                <mxCell id="225" value="60A TPN&lt;br&gt;MCCB" style="text;strokeColor=none;align=center;fillColor=none;html=1;verticalAlign=middle;whiteSpace=wrap;rounded=0;fontSize=8;rotation=-90;" vertex="1" parent="1">
                    <mxGeometry x="810" y="-632.5" width="50" height="25" as="geometry"/>
                </mxCell>
                <mxCell id="226" value="60A TPN&lt;br&gt;MCCB" style="text;strokeColor=none;align=center;fillColor=none;html=1;verticalAlign=middle;whiteSpace=wrap;rounded=0;fontSize=8;rotation=-90;" vertex="1" parent="1">
                    <mxGeometry x="930" y="-632.5" width="50" height="25" as="geometry"/>
                </mxCell>
                <mxCell id="227" value="100A TPN&lt;br&gt;MCCB" style="text;strokeColor=none;align=center;fillColor=none;html=1;verticalAlign=middle;whiteSpace=wrap;rounded=0;fontSize=8;rotation=-90;" vertex="1" parent="1">
                    <mxGeometry x="870" y="-632.5" width="50" height="25" as="geometry"/>
                </mxCell>
                <mxCell id="228" value="30A TPN&lt;br&gt;MCCB" style="text;strokeColor=none;align=center;fillColor=none;html=1;verticalAlign=middle;whiteSpace=wrap;rounded=0;fontSize=8;rotation=-90;" vertex="1" parent="1">
                    <mxGeometry x="990" y="-632.5" width="50" height="25" as="geometry"/>
                </mxCell>
                <mxCell id="229" value="" style="shape=mxgraph.sysml.x;" vertex="1" parent="1">
                    <mxGeometry x="1090" y="-627.5" width="20" height="20" as="geometry"/>
                </mxCell>
                <mxCell id="230" value="600A TPN&lt;br&gt;MCCB" style="text;strokeColor=none;align=center;fillColor=none;html=1;verticalAlign=middle;whiteSpace=wrap;rounded=0;fontSize=8;rotation=-90;" vertex="1" parent="1">
                    <mxGeometry x="1050" y="-632.5" width="50" height="25" as="geometry"/>
                </mxCell>
                <mxCell id="231" value="" style="endArrow=none;html=1;" edge="1" parent="1">
                    <mxGeometry width="50" height="50" relative="1" as="geometry">
                        <mxPoint x="1100.5" y="-560" as="sourcePoint"/>
                        <mxPoint x="1100" y="-605" as="targetPoint"/>
                    </mxGeometry>
                </mxCell>
                <mxCell id="232" value="" style="endArrow=none;html=1;" edge="1" parent="1">
                    <mxGeometry width="50" height="50" relative="1" as="geometry">
                        <mxPoint x="1320" y="-560" as="sourcePoint"/>
                        <mxPoint x="1100" y="-560" as="targetPoint"/>
                    </mxGeometry>
                </mxCell>
                <mxCell id="233" value="" style="shape=mxgraph.electrical.electro-mechanical.twoWaySwitch;aspect=fixed;elSwitchState=2;fontSize=9;direction=north;" vertex="1" parent="1">
                    <mxGeometry x="1320" y="-580" width="30" height="86.54" as="geometry"/>
                </mxCell>
                <mxCell id="234" value="600A TPN&lt;br&gt;Changer Over&lt;br&gt;Contactor" style="text;strokeColor=none;align=center;fillColor=none;html=1;verticalAlign=middle;whiteSpace=wrap;rounded=0;fontSize=9;rotation=0;" vertex="1" parent="1">
                    <mxGeometry x="1265" y="-551.73" width="60" height="30" as="geometry"/>
                </mxCell>
                <mxCell id="240" value="" style="shape=mxgraph.sysml.x;" vertex="1" parent="1">
                    <mxGeometry x="1336.25" y="-627.5" width="20" height="20" as="geometry"/>
                </mxCell>
                <mxCell id="241" value="&lt;font style=&quot;font-size: 9px;&quot;&gt;600A TPN&lt;br&gt;Isolator&lt;/font&gt;" style="text;strokeColor=none;align=center;fillColor=none;html=1;verticalAlign=middle;whiteSpace=wrap;rounded=0;fontSize=8;rotation=0;" vertex="1" parent="1">
                    <mxGeometry x="1290" y="-627.5" width="50" height="25" as="geometry"/>
                </mxCell>
                <mxCell id="242" value="AMF Board" style="rounded=0;whiteSpace=wrap;html=1;" vertex="1" parent="1">
                    <mxGeometry x="1300" y="-720" width="90" height="40" as="geometry"/>
                </mxCell>
                <mxCell id="243" value="" style="endArrow=none;html=1;entryX=0.5;entryY=1;entryDx=0;entryDy=0;" edge="1" parent="1" target="242">
                    <mxGeometry width="50" height="50" relative="1" as="geometry">
                        <mxPoint x="1345" y="-630" as="sourcePoint"/>
                        <mxPoint x="1320" y="-680" as="targetPoint"/>
                    </mxGeometry>
                </mxCell>
                <mxCell id="244" value="G" style="dashed=0;outlineConnect=0;align=center;html=1;shape=mxgraph.pid.engines.generator_(ac);fontSize=45;" vertex="1" parent="1">
                    <mxGeometry x="1331.25" y="-780" width="27.5" height="30" as="geometry"/>
                </mxCell>
                <mxCell id="245" value="" style="endArrow=none;html=1;entryX=0.5;entryY=1;entryDx=0;entryDy=0;entryPerimeter=0;exitX=0.5;exitY=0;exitDx=0;exitDy=0;" edge="1" parent="1" source="242" target="244">
                    <mxGeometry width="50" height="50" relative="1" as="geometry">
                        <mxPoint x="1320" y="-720" as="sourcePoint"/>
                        <mxPoint x="1318.82" y="-750" as="targetPoint"/>
                    </mxGeometry>
                </mxCell>
                <mxCell id="246" value="400kVA&lt;br&gt;GENERATOR&lt;br&gt;SETS" style="text;strokeColor=none;align=center;fillColor=none;html=1;verticalAlign=middle;whiteSpace=wrap;rounded=0;" vertex="1" parent="1">
                    <mxGeometry x="1306.25" y="-820" width="80" height="30" as="geometry"/>
                </mxCell>
                <mxCell id="247" value="" style="shape=mxgraph.sysml.x;" vertex="1" parent="1">
                    <mxGeometry x="1325" y="-433" width="20" height="20" as="geometry"/>
                </mxCell>
                <mxCell id="248" value="" style="endArrow=none;html=1;" edge="1" parent="1" source="247">
                    <mxGeometry width="50" height="50" relative="1" as="geometry">
                        <mxPoint x="1334" y="-460" as="sourcePoint"/>
                        <mxPoint x="1334.41" y="-493.46" as="targetPoint"/>
                        <Array as="points">
                            <mxPoint x="1334" y="-470"/>
                        </Array>
                    </mxGeometry>
                </mxCell>
                <mxCell id="252" value="" style="endArrow=none;html=1;exitX=1;exitY=0.88;exitDx=0;exitDy=0;" edge="1" parent="1" source="233" target="240">
                    <mxGeometry width="50" height="50" relative="1" as="geometry">
                        <mxPoint x="1330" y="-620" as="sourcePoint"/>
                        <mxPoint x="1330" y="-670" as="targetPoint"/>
                    </mxGeometry>
                </mxCell>
                <mxCell id="253" value="&lt;font style=&quot;font-size: 9px;&quot;&gt;600A TPN&lt;br&gt;MCCB&lt;/font&gt;" style="text;strokeColor=none;align=center;fillColor=none;html=1;verticalAlign=middle;whiteSpace=wrap;rounded=0;fontSize=8;rotation=0;" vertex="1" parent="1">
                    <mxGeometry x="1280" y="-433" width="50" height="25" as="geometry"/>
                </mxCell>
                <mxCell id="254" value="" style="endArrow=none;html=1;" edge="1" parent="1">
                    <mxGeometry width="50" height="50" relative="1" as="geometry">
                        <mxPoint x="1335" y="-350" as="sourcePoint"/>
                        <mxPoint x="1335.4799999999998" y="-413.00000000000006" as="targetPoint"/>
                        <Array as="points">
                            <mxPoint x="1335.07" y="-389.54"/>
                        </Array>
                    </mxGeometry>
                </mxCell>
                <mxCell id="255" value="" style="endArrow=none;html=1;" edge="1" parent="1">
                    <mxGeometry width="50" height="50" relative="1" as="geometry">
                        <mxPoint x="1389.9999999999998" y="-350" as="sourcePoint"/>
                        <mxPoint x="1700" y="-350" as="targetPoint"/>
                        <Array as="points">
                            <mxPoint x="1700" y="-350"/>
                        </Array>
                    </mxGeometry>
                </mxCell>
                <mxCell id="256" value="" style="endArrow=none;html=1;" edge="1" parent="1">
                    <mxGeometry width="50" height="50" relative="1" as="geometry">
                        <mxPoint x="1229.9999999999998" y="-350" as="sourcePoint"/>
                        <mxPoint x="1700" y="-350" as="targetPoint"/>
                        <Array as="points">
                            <mxPoint x="1700" y="-350"/>
                            <mxPoint x="1720" y="-350"/>
                        </Array>
                    </mxGeometry>
                </mxCell>
                <mxCell id="257" value="" style="endArrow=none;html=1;" edge="1" parent="1">
                    <mxGeometry width="50" height="50" relative="1" as="geometry">
                        <mxPoint x="1710" y="-350" as="sourcePoint"/>
                        <mxPoint x="2000" y="-350" as="targetPoint"/>
                    </mxGeometry>
                </mxCell>
                <mxCell id="260" value="" style="endArrow=none;html=1;" edge="1" parent="1">
                    <mxGeometry width="50" height="50" relative="1" as="geometry">
                        <mxPoint x="1229.9999999999998" y="-310" as="sourcePoint"/>
                        <mxPoint x="1230.5" y="-350" as="targetPoint"/>
                    </mxGeometry>
                </mxCell>
                <mxCell id="261" value="" style="endArrow=none;html=1;" edge="1" parent="1">
                    <mxGeometry width="50" height="50" relative="1" as="geometry">
                        <mxPoint x="1291" y="-310" as="sourcePoint"/>
                        <mxPoint x="1290.5" y="-350" as="targetPoint"/>
                    </mxGeometry>
                </mxCell>
                <mxCell id="262" value="" style="endArrow=none;html=1;" edge="1" parent="1">
                    <mxGeometry width="50" height="50" relative="1" as="geometry">
                        <mxPoint x="1351" y="-310" as="sourcePoint"/>
                        <mxPoint x="1350.5" y="-350" as="targetPoint"/>
                    </mxGeometry>
                </mxCell>
                <mxCell id="263" value="" style="endArrow=none;html=1;" edge="1" parent="1">
                    <mxGeometry width="50" height="50" relative="1" as="geometry">
                        <mxPoint x="1411" y="-310" as="sourcePoint"/>
                        <mxPoint x="1410.5" y="-350" as="targetPoint"/>
                    </mxGeometry>
                </mxCell>
                <mxCell id="264" value="" style="endArrow=none;html=1;" edge="1" parent="1">
                    <mxGeometry width="50" height="50" relative="1" as="geometry">
                        <mxPoint x="1469.9999999999998" y="-310" as="sourcePoint"/>
                        <mxPoint x="1470.5" y="-350" as="targetPoint"/>
                    </mxGeometry>
                </mxCell>
                <mxCell id="265" value="" style="endArrow=none;html=1;" edge="1" parent="1">
                    <mxGeometry width="50" height="50" relative="1" as="geometry">
                        <mxPoint x="1651" y="-310" as="sourcePoint"/>
                        <mxPoint x="1650.5" y="-350" as="targetPoint"/>
                    </mxGeometry>
                </mxCell>
                <mxCell id="266" value="" style="endArrow=none;html=1;" edge="1" parent="1">
                    <mxGeometry width="50" height="50" relative="1" as="geometry">
                        <mxPoint x="1591" y="-310" as="sourcePoint"/>
                        <mxPoint x="1590.5" y="-350" as="targetPoint"/>
                    </mxGeometry>
                </mxCell>
                <mxCell id="267" value="" style="endArrow=none;html=1;" edge="1" parent="1">
                    <mxGeometry width="50" height="50" relative="1" as="geometry">
                        <mxPoint x="1531" y="-310" as="sourcePoint"/>
                        <mxPoint x="1530.5" y="-350" as="targetPoint"/>
                    </mxGeometry>
                </mxCell>
                <mxCell id="268" value="" style="shape=mxgraph.sysml.x;" vertex="1" parent="1">
                    <mxGeometry x="1220" y="-310" width="20" height="20" as="geometry"/>
                </mxCell>
                <mxCell id="269" value="" style="shape=mxgraph.sysml.x;" vertex="1" parent="1">
                    <mxGeometry x="1340" y="-310" width="20" height="20" as="geometry"/>
                </mxCell>
                <mxCell id="270" value="" style="shape=mxgraph.sysml.x;" vertex="1" parent="1">
                    <mxGeometry x="1520" y="-310" width="20" height="20" as="geometry"/>
                </mxCell>
                <mxCell id="271" value="" style="shape=mxgraph.sysml.x;" vertex="1" parent="1">
                    <mxGeometry x="1580" y="-310" width="20" height="20" as="geometry"/>
                </mxCell>
                <mxCell id="272" value="" style="shape=mxgraph.sysml.x;" vertex="1" parent="1">
                    <mxGeometry x="1640" y="-310" width="20" height="20" as="geometry"/>
                </mxCell>
                <mxCell id="273" value="" style="shape=mxgraph.sysml.x;" vertex="1" parent="1">
                    <mxGeometry x="1460" y="-310" width="20" height="20" as="geometry"/>
                </mxCell>
                <mxCell id="274" value="" style="shape=mxgraph.sysml.x;" vertex="1" parent="1">
                    <mxGeometry x="1280" y="-310" width="20" height="20" as="geometry"/>
                </mxCell>
                <mxCell id="275" value="" style="shape=mxgraph.sysml.x;" vertex="1" parent="1">
                    <mxGeometry x="1400" y="-310" width="20" height="20" as="geometry"/>
                </mxCell>
                <mxCell id="276" value="150A TPN&lt;br&gt;MCCB" style="text;strokeColor=none;align=center;fillColor=none;html=1;verticalAlign=middle;whiteSpace=wrap;rounded=0;fontSize=8;rotation=-90;" vertex="1" parent="1">
                    <mxGeometry x="1180" y="-310" width="50" height="25" as="geometry"/>
                </mxCell>
                <mxCell id="277" value="100A TPN&lt;br&gt;MCCB" style="text;strokeColor=none;align=center;fillColor=none;html=1;verticalAlign=middle;whiteSpace=wrap;rounded=0;fontSize=8;rotation=-90;" vertex="1" parent="1">
                    <mxGeometry x="1240" y="-312.5" width="50" height="25" as="geometry"/>
                </mxCell>
                <mxCell id="278" value="100A TPN&lt;br&gt;MCCB" style="text;strokeColor=none;align=center;fillColor=none;html=1;verticalAlign=middle;whiteSpace=wrap;rounded=0;fontSize=8;rotation=-90;" vertex="1" parent="1">
                    <mxGeometry x="1300" y="-312.5" width="50" height="25" as="geometry"/>
                </mxCell>
                <mxCell id="279" value="60A TPN&lt;br&gt;MCCB" style="text;strokeColor=none;align=center;fillColor=none;html=1;verticalAlign=middle;whiteSpace=wrap;rounded=0;fontSize=8;rotation=-90;" vertex="1" parent="1">
                    <mxGeometry x="1360" y="-312.5" width="50" height="25" as="geometry"/>
                </mxCell>
                <mxCell id="280" value="60A TPN&lt;br&gt;MCCB" style="text;strokeColor=none;align=center;fillColor=none;html=1;verticalAlign=middle;whiteSpace=wrap;rounded=0;fontSize=8;rotation=-90;" vertex="1" parent="1">
                    <mxGeometry x="1420" y="-312.5" width="50" height="25" as="geometry"/>
                </mxCell>
                <mxCell id="281" value="100A TPN&lt;br&gt;MCCB" style="text;strokeColor=none;align=center;fillColor=none;html=1;verticalAlign=middle;whiteSpace=wrap;rounded=0;fontSize=8;rotation=-90;" vertex="1" parent="1">
                    <mxGeometry x="1480" y="-312.5" width="50" height="25" as="geometry"/>
                </mxCell>
                <mxCell id="282" value="200A TPN&lt;br&gt;MCCB" style="text;strokeColor=none;align=center;fillColor=none;html=1;verticalAlign=middle;whiteSpace=wrap;rounded=0;fontSize=8;rotation=-90;" vertex="1" parent="1">
                    <mxGeometry x="1540" y="-312.5" width="50" height="25" as="geometry"/>
                </mxCell>
                <mxCell id="283" value="60A TPN&lt;br&gt;MCCB" style="text;strokeColor=none;align=center;fillColor=none;html=1;verticalAlign=middle;whiteSpace=wrap;rounded=0;fontSize=8;rotation=-90;" vertex="1" parent="1">
                    <mxGeometry x="1600" y="-312.5" width="50" height="25" as="geometry"/>
                </mxCell>
                <mxCell id="288" value="" style="endArrow=none;html=1;" edge="1" parent="1">
                    <mxGeometry width="50" height="50" relative="1" as="geometry">
                        <mxPoint x="1231" y="-240" as="sourcePoint"/>
                        <mxPoint x="1230.5" y="-285" as="targetPoint"/>
                    </mxGeometry>
                </mxCell>
                <mxCell id="289" value="" style="endArrow=none;html=1;" edge="1" parent="1">
                    <mxGeometry width="50" height="50" relative="1" as="geometry">
                        <mxPoint x="1290.5" y="-240" as="sourcePoint"/>
                        <mxPoint x="1289.9999999999998" y="-285" as="targetPoint"/>
                    </mxGeometry>
                </mxCell>
                <mxCell id="290" value="" style="endArrow=none;html=1;" edge="1" parent="1">
                    <mxGeometry width="50" height="50" relative="1" as="geometry">
                        <mxPoint x="1350.5" y="-240" as="sourcePoint"/>
                        <mxPoint x="1349.9999999999998" y="-285" as="targetPoint"/>
                    </mxGeometry>
                </mxCell>
                <mxCell id="291" value="" style="endArrow=none;html=1;" edge="1" parent="1">
                    <mxGeometry width="50" height="50" relative="1" as="geometry">
                        <mxPoint x="1409.9999999999998" y="-240" as="sourcePoint"/>
                        <mxPoint x="1409.5" y="-285" as="targetPoint"/>
                    </mxGeometry>
                </mxCell>
                <mxCell id="294" value="&lt;b&gt;SPARE&lt;/b&gt;" style="text;strokeColor=none;align=center;fillColor=none;html=1;verticalAlign=middle;whiteSpace=wrap;rounded=0;fontSize=8;rotation=0;" vertex="1" parent="1">
                    <mxGeometry x="1920" y="-285" width="60" height="30" as="geometry"/>
                </mxCell>
                <mxCell id="295" value="&lt;font style=&quot;font-size: 9px;&quot;&gt;ESSB.G&lt;br&gt;(10.00kW)&lt;/font&gt;" style="text;strokeColor=none;align=center;fillColor=none;html=1;verticalAlign=middle;whiteSpace=wrap;rounded=0;fontSize=8;rotation=0;" vertex="1" parent="1">
                    <mxGeometry x="1200" y="-240" width="60" height="30" as="geometry"/>
                </mxCell>
                <mxCell id="296" value="" style="endArrow=none;html=1;" edge="1" parent="1">
                    <mxGeometry width="50" height="50" relative="1" as="geometry">
                        <mxPoint x="1709.41" y="-310" as="sourcePoint"/>
                        <mxPoint x="1709.91" y="-350" as="targetPoint"/>
                    </mxGeometry>
                </mxCell>
                <mxCell id="297" value="" style="endArrow=none;html=1;" edge="1" parent="1">
                    <mxGeometry width="50" height="50" relative="1" as="geometry">
                        <mxPoint x="1769.41" y="-310" as="sourcePoint"/>
                        <mxPoint x="1769.91" y="-350" as="targetPoint"/>
                    </mxGeometry>
                </mxCell>
                <mxCell id="298" value="" style="endArrow=none;html=1;" edge="1" parent="1">
                    <mxGeometry width="50" height="50" relative="1" as="geometry">
                        <mxPoint x="1889.41" y="-310" as="sourcePoint"/>
                        <mxPoint x="1889.91" y="-350" as="targetPoint"/>
                    </mxGeometry>
                </mxCell>
                <mxCell id="299" value="" style="endArrow=none;html=1;" edge="1" parent="1">
                    <mxGeometry width="50" height="50" relative="1" as="geometry">
                        <mxPoint x="1829.41" y="-310" as="sourcePoint"/>
                        <mxPoint x="1829" y="-350" as="targetPoint"/>
                    </mxGeometry>
                </mxCell>
                <mxCell id="300" value="" style="shape=mxgraph.sysml.x;" vertex="1" parent="1">
                    <mxGeometry x="1700" y="-310" width="20" height="20" as="geometry"/>
                </mxCell>
                <mxCell id="301" value="" style="shape=mxgraph.sysml.x;" vertex="1" parent="1">
                    <mxGeometry x="1880" y="-310" width="20" height="20" as="geometry"/>
                </mxCell>
                <mxCell id="302" value="" style="shape=mxgraph.sysml.x;" vertex="1" parent="1">
                    <mxGeometry x="1820" y="-310" width="20" height="20" as="geometry"/>
                </mxCell>
                <mxCell id="303" value="" style="shape=mxgraph.sysml.x;" vertex="1" parent="1">
                    <mxGeometry x="1760" y="-310" width="20" height="20" as="geometry"/>
                </mxCell>
                <mxCell id="308" value="" style="endArrow=none;html=1;" edge="1" parent="1">
                    <mxGeometry width="50" height="50" relative="1" as="geometry">
                        <mxPoint x="1709.91" y="-240" as="sourcePoint"/>
                        <mxPoint x="1709.41" y="-285" as="targetPoint"/>
                    </mxGeometry>
                </mxCell>
                <mxCell id="310" value="" style="endArrow=none;html=1;" edge="1" parent="1">
                    <mxGeometry width="50" height="50" relative="1" as="geometry">
                        <mxPoint x="1829.91" y="-240" as="sourcePoint"/>
                        <mxPoint x="1829.41" y="-285" as="targetPoint"/>
                    </mxGeometry>
                </mxCell>
                <mxCell id="311" value="" style="endArrow=none;html=1;" edge="1" parent="1">
                    <mxGeometry width="50" height="50" relative="1" as="geometry">
                        <mxPoint x="1769.91" y="-240" as="sourcePoint"/>
                        <mxPoint x="1769.41" y="-285" as="targetPoint"/>
                    </mxGeometry>
                </mxCell>
                <mxCell id="316" value="" style="endArrow=none;html=1;" edge="1" parent="1">
                    <mxGeometry width="50" height="50" relative="1" as="geometry">
                        <mxPoint x="1949.41" y="-310" as="sourcePoint"/>
                        <mxPoint x="1949.91" y="-350" as="targetPoint"/>
                    </mxGeometry>
                </mxCell>
                <mxCell id="323" value="" style="shape=mxgraph.sysml.x;" vertex="1" parent="1">
                    <mxGeometry x="1940" y="-310" width="20" height="20" as="geometry"/>
                </mxCell>
                <mxCell id="339" value="100A TPN&lt;br&gt;MCCB" style="text;strokeColor=none;align=center;fillColor=none;html=1;verticalAlign=middle;whiteSpace=wrap;rounded=0;fontSize=8;rotation=-90;" vertex="1" parent="1">
                    <mxGeometry x="1660" y="-312.5" width="50" height="25" as="geometry"/>
                </mxCell>
                <mxCell id="340" value="100A TPN&lt;br&gt;MCCB" style="text;strokeColor=none;align=center;fillColor=none;html=1;verticalAlign=middle;whiteSpace=wrap;rounded=0;fontSize=8;rotation=-90;" vertex="1" parent="1">
                    <mxGeometry x="1720" y="-312.5" width="50" height="25" as="geometry"/>
                </mxCell>
                <mxCell id="341" value="60A TPN&lt;br&gt;MCCB" style="text;strokeColor=none;align=center;fillColor=none;html=1;verticalAlign=middle;whiteSpace=wrap;rounded=0;fontSize=8;rotation=-90;" vertex="1" parent="1">
                    <mxGeometry x="1780" y="-312.5" width="50" height="25" as="geometry"/>
                </mxCell>
                <mxCell id="342" value="60A TPN&lt;br&gt;MCCB" style="text;strokeColor=none;align=center;fillColor=none;html=1;verticalAlign=middle;whiteSpace=wrap;rounded=0;fontSize=8;rotation=-90;" vertex="1" parent="1">
                    <mxGeometry x="1840" y="-312.5" width="50" height="25" as="geometry"/>
                </mxCell>
                <mxCell id="343" value="60A TPN&lt;br&gt;MCCB" style="text;strokeColor=none;align=center;fillColor=none;html=1;verticalAlign=middle;whiteSpace=wrap;rounded=0;fontSize=8;rotation=-90;" vertex="1" parent="1">
                    <mxGeometry x="1900" y="-312.5" width="50" height="25" as="geometry"/>
                </mxCell>
                <mxCell id="344" value="&lt;b&gt;SPARE&lt;/b&gt;" style="text;strokeColor=none;align=center;fillColor=none;html=1;verticalAlign=middle;whiteSpace=wrap;rounded=0;fontSize=8;rotation=0;" vertex="1" parent="1">
                    <mxGeometry x="1860" y="-285" width="60" height="30" as="geometry"/>
                </mxCell>
                <mxCell id="345" value="&lt;font style=&quot;font-size: 9px;&quot;&gt;ESSB.1&lt;br&gt;(10.00kW)&lt;/font&gt;" style="text;strokeColor=none;align=center;fillColor=none;html=1;verticalAlign=middle;whiteSpace=wrap;rounded=0;fontSize=8;rotation=0;" vertex="1" parent="1">
                    <mxGeometry x="1260" y="-240" width="60" height="30" as="geometry"/>
                </mxCell>
                <mxCell id="346" value="&lt;font style=&quot;font-size: 9px;&quot;&gt;ESSB.2&lt;br&gt;(10.00kW)&lt;/font&gt;" style="text;strokeColor=none;align=center;fillColor=none;html=1;verticalAlign=middle;whiteSpace=wrap;rounded=0;fontSize=8;rotation=0;" vertex="1" parent="1">
                    <mxGeometry x="1320" y="-240" width="60" height="30" as="geometry"/>
                </mxCell>
                <mxCell id="347" value="&lt;font style=&quot;font-size: 9px;&quot;&gt;ESSB.3&lt;br&gt;(7.00kW)&lt;/font&gt;" style="text;strokeColor=none;align=center;fillColor=none;html=1;verticalAlign=middle;whiteSpace=wrap;rounded=0;fontSize=8;rotation=0;" vertex="1" parent="1">
                    <mxGeometry x="1380" y="-240" width="60" height="30" as="geometry"/>
                </mxCell>
                <mxCell id="348" value="" style="endArrow=none;html=1;" edge="1" parent="1">
                    <mxGeometry width="50" height="50" relative="1" as="geometry">
                        <mxPoint x="1589.9099999999999" y="-240" as="sourcePoint"/>
                        <mxPoint x="1589.4099999999999" y="-285" as="targetPoint"/>
                    </mxGeometry>
                </mxCell>
                <mxCell id="349" value="" style="endArrow=none;html=1;" edge="1" parent="1">
                    <mxGeometry width="50" height="50" relative="1" as="geometry">
                        <mxPoint x="1649.9099999999999" y="-240" as="sourcePoint"/>
                        <mxPoint x="1649.4099999999999" y="-285" as="targetPoint"/>
                    </mxGeometry>
                </mxCell>
                <mxCell id="350" value="" style="endArrow=none;html=1;" edge="1" parent="1">
                    <mxGeometry width="50" height="50" relative="1" as="geometry">
                        <mxPoint x="1530.4999999999998" y="-240" as="sourcePoint"/>
                        <mxPoint x="1529.9999999999998" y="-285" as="targetPoint"/>
                    </mxGeometry>
                </mxCell>
                <mxCell id="351" value="" style="endArrow=none;html=1;" edge="1" parent="1">
                    <mxGeometry width="50" height="50" relative="1" as="geometry">
                        <mxPoint x="1469.32" y="-240" as="sourcePoint"/>
                        <mxPoint x="1468.82" y="-285" as="targetPoint"/>
                    </mxGeometry>
                </mxCell>
                <mxCell id="352" value="&lt;font style=&quot;font-size: 9px;&quot;&gt;ESSB-AC-21&lt;br&gt;(11.15kW)&lt;/font&gt;" style="text;strokeColor=none;align=center;fillColor=none;html=1;verticalAlign=middle;whiteSpace=wrap;rounded=0;fontSize=8;rotation=0;" vertex="1" parent="1">
                    <mxGeometry x="1440" y="-240" width="60" height="30" as="geometry"/>
                </mxCell>
                <mxCell id="353" value="&lt;font style=&quot;font-size: 9px;&quot;&gt;ESSB-AC-G1&lt;br&gt;(23.60kW)&lt;/font&gt;" style="text;strokeColor=none;align=center;fillColor=none;html=1;verticalAlign=middle;whiteSpace=wrap;rounded=0;fontSize=8;rotation=0;" vertex="1" parent="1">
                    <mxGeometry x="1500" y="-240" width="60" height="30" as="geometry"/>
                </mxCell>
                <mxCell id="354" value="&lt;font style=&quot;font-size: 9px;&quot;&gt;E Main A/C&lt;br&gt;Control Panel&lt;br&gt;(73.7kW)&lt;/font&gt;" style="text;strokeColor=none;align=center;fillColor=none;html=1;verticalAlign=middle;whiteSpace=wrap;rounded=0;fontSize=8;rotation=0;" vertex="1" parent="1">
                    <mxGeometry x="1560" y="-240" width="60" height="30" as="geometry"/>
                </mxCell>
                <mxCell id="355" value="&lt;font style=&quot;font-size: 9px;&quot;&gt;ESSB-LV&lt;br&gt;(7.0kW)&lt;/font&gt;" style="text;strokeColor=none;align=center;fillColor=none;html=1;verticalAlign=middle;whiteSpace=wrap;rounded=0;fontSize=8;rotation=0;" vertex="1" parent="1">
                    <mxGeometry x="1620" y="-240" width="60" height="30" as="geometry"/>
                </mxCell>
                <mxCell id="356" value="&lt;font style=&quot;font-size: 9px;&quot;&gt;SSB-AC-22&lt;br&gt;(23.33kW)&lt;/font&gt;" style="text;strokeColor=none;align=center;fillColor=none;html=1;verticalAlign=middle;whiteSpace=wrap;rounded=0;fontSize=8;rotation=0;" vertex="1" parent="1">
                    <mxGeometry x="1680" y="-240" width="60" height="30" as="geometry"/>
                </mxCell>
                <mxCell id="357" value="&lt;font style=&quot;font-size: 9px;&quot;&gt;SSB-AC-G2&lt;br&gt;(26.00kW)&lt;/font&gt;" style="text;strokeColor=none;align=center;fillColor=none;html=1;verticalAlign=middle;whiteSpace=wrap;rounded=0;fontSize=8;rotation=0;" vertex="1" parent="1">
                    <mxGeometry x="1740" y="-240" width="60" height="30" as="geometry"/>
                </mxCell>
                <mxCell id="358" value="&lt;font size=&quot;1&quot;&gt;Hose Reel&lt;br&gt;Pump Panel&lt;br&gt;&lt;/font&gt;(5.0kW)" style="text;strokeColor=none;align=center;fillColor=none;html=1;verticalAlign=middle;whiteSpace=wrap;rounded=0;fontSize=8;rotation=0;" vertex="1" parent="1">
                    <mxGeometry x="1800" y="-240" width="60" height="30" as="geometry"/>
                </mxCell>
                <mxCell id="359" value="&lt;font size=&quot;3&quot;&gt;&lt;u&gt;Main Switch Board No. 1&lt;br&gt;(406.85kW)&lt;/u&gt;&lt;br&gt;&lt;/font&gt;" style="text;strokeColor=none;align=center;fillColor=none;html=1;verticalAlign=middle;whiteSpace=wrap;rounded=0;fontSize=9;" vertex="1" parent="1">
                    <mxGeometry y="-780" width="190" height="30" as="geometry"/>
                </mxCell>
                <mxCell id="360" value="&lt;font size=&quot;3&quot;&gt;&lt;u&gt;Main Switch Board No. 2&lt;br&gt;(378.43kW)&lt;/u&gt;&lt;br&gt;&lt;/font&gt;" style="text;strokeColor=none;align=center;fillColor=none;html=1;verticalAlign=middle;whiteSpace=wrap;rounded=0;fontSize=9;" vertex="1" parent="1">
                    <mxGeometry x="640" y="-800" width="190" height="30" as="geometry"/>
                </mxCell>
                <mxCell id="361" value="&lt;font size=&quot;3&quot;&gt;&lt;u&gt;Essential Switch Board&lt;br&gt;(206.78kW)&lt;/u&gt;&lt;br&gt;&lt;/font&gt;" style="text;strokeColor=none;align=center;fillColor=none;html=1;verticalAlign=middle;whiteSpace=wrap;rounded=0;fontSize=9;" vertex="1" parent="1">
                    <mxGeometry x="1410" y="-750" width="190" height="30" as="geometry"/>
                </mxCell>
            </root>
        </mxGraphModel>
    </diagram>
</mxfile>